{"title":"The Hiding Place *2011* [DVDRip.XviD-miguel] [ENG]","uid":6638281,"size":1480479863,"categoryP":"video","categoryS":"movies","magnet":"?xt=urn:btih:c5ac616d30325922079108d72feed76b445f7c3a&amp;dn=+The+Hiding+Place+%2A2011%2A+%5BDVDRip.XviD-miguel%5D+%5BENG%5D&amp;tr=udp%3A%2F%2Ftracker.openbittorrent.com%3A80&amp;tr=udp%3A%2F%2Fopen.demonii.com%3A1337&amp;tr=udp%3A%2F%2Ftracker.coppersurfer.tk%3A6969&amp;tr=udp%3A%2F%2Fexodus.desync.com%3A6969","seeders":2,"leechers":0,"uploader":"miguel1983","files":-1,"time":1314645415,"description":" &lt;a href=&quot;http://img18.imageshack.us/img18/4906/returntothehidingplace2.jpg&quot; rel=&quot;nofollow&quot; target=&quot;_NEW&quot;&gt;http://img18.imageshack.us/img18/4906/returntothehidingplace2.jpg&lt;/a&gt;\n\nCountry.......: USA\nGenre.........: Thriller, Drama, History, War\nDate release..: 2011 [World]\nDirector......: Peter C. Spencer\nWriters.......: Peter C. Spencer\nDuration......: 124 min.\nMore..........: http://www.imdb.com/title/tt1691153\nTrailer.......:\n\nPilot :\nWhen the Nazis begin killing Jews in Holland, a group of youth fight to save the lives of the innocent. \n\nCats :\nJohn Rhys Davies   \t ...  \tEusi\nMimi Sagadin \t... \tCorrie ten Boom\nCraig Robert Young \t... \tPiet Hartog\nDavid Thomas Jenkins \t... \tHans Poley\nRachel Spencer Hewitt \t... \tAty van Woerden\nSuzy Brack \t... \tNollie ten Boom van Woerden\nJoanie Stewart \t... \tBetsie ten Boom\nStass Klassen \t... \tColonel von Laeman\nGary Moore \t... \tLars\nLouie Lawless \t... \tBoard Member\nSteve Christopher \t... \tLaurent Mathijs\nCharlie Jensen \t... \tDe Vries\nKorey Simeone \t... \tPickwick\nMark Boyd \t... \tKarl\nWalt Sloan \t... \tHerman Poley \n\nData Technical :\n!!! SAMPLE !!!\nAudio.....: English\nSubtitles.: None\nFormat                           : AVI\nFormat/Info                      : Audio Video Interleave\nFile size                        : 1.37 GiB\nDuration                         : 2h 3mn\nOverall bit rate                 : 1 589 Kbps\nWriting application              : VirtualDubMod 1.5.10.2 (build 2540/release)\nWriting library                  : VirtualDubMod build 2540/release\nVideo\nID                               : 0\nFormat                           : MPEG-4 Visual\nFormat profile                   : Advanced Simple@L5\nFormat settings, BVOP            : Yes\nFormat settings, QPel            : No\nFormat settings, GMC             : No warppoints\nFormat settings, Matrix          : Default (H.263)\nMuxing mode                      : Packed bitstream\nCodec ID                         : XVID\nCodec ID/Hint                    : XviD\nDuration                         : 2h 3mn\nBit rate                         : 1 195 Kbps\nWidth                            : 720 pixels\nHeight                           : 400 pixels\nDisplay aspect ratio             : 16:9\nFrame rate                       : 25.000 fps\nColor space                      : YUV\nChroma subsampling               : 4:2:0\nBit depth                        : 8 bits\nScan type                        : Progressive\nBits/(Pixel*Frame)               : 0.166\nStream size                      : 1.03 GiB (75%)\nWriting library                  : XviD 64\nAudio\nID                               : 1\nFormat                           : AC-3\nFormat/Info                      : Audio Coding 3\nMode extension                   : CM (complete main)\nCodec ID                         : 2000\nDuration                         : 2h 3mn\nBit rate mode                    : Constant\nBit rate                         : 384 Kbps\nChannel(s)                       : 6 channels\nChannel positions                : Front: L C R, Side: L R, LFE\nSampling rate                    : 48.0 KHz\nBit depth                        : 16 bits\nStream size                      : 340 MiB (24%)\nAlignment                        : Split accross interleaves\nInterleave, duration             : 40 ms (1.00 video frame)\nInterleave, preload duration     : 500 ms\n\nScreen : &lt;a href=&quot;\nhttp://img850.imageshack.us/img850/4906/returntothehidingplace2.jpg&quot; rel=&quot;nofollow&quot; target=&quot;_NEW&quot;&gt;\nhttp://img850.imageshack.us/img850/4906/returntothehidingplace2.jpg&lt;/a&gt; &lt;a href=&quot;\nhttp://img838.imageshack.us/img838/4906/returntothehidingplace2.jpg&quot; rel=&quot;nofollow&quot; target=&quot;_NEW&quot;&gt;\nhttp://img838.imageshack.us/img838/4906/returntothehidingplace2.jpg&lt;/a&gt; &lt;a href=&quot;\nhttp://img824.imageshack.us/img824/4906/returntothehidingplace2.jpg&quot; rel=&quot;nofollow&quot; target=&quot;_NEW&quot;&gt;\nhttp://img824.imageshack.us/img824/4906/returntothehidingplace2.jpg&lt;/a&gt; &lt;a href=&quot;\nhttp://img819.imageshack.us/img819/4906/returntothehidingplace2.jpg&quot; rel=&quot;nofollow&quot; target=&quot;_NEW&quot;&gt;\nhttp://img819.imageshack.us/img819/4906/returntothehidingplace2.jpg&lt;/a&gt; &lt;a href=&quot;\nhttp://img716.imageshack.us/img716/4906/returntothehidingplace2.jpg&quot; rel=&quot;nofollow&quot; target=&quot;_NEW&quot;&gt;\nhttp://img716.imageshack.us/img716/4906/returntothehidingplace2.jpg&lt;/a&gt;","torrent":{"xt":"urn:btih:c5ac616d30325922079108d72feed76b445f7c3a","amp;dn":"+The+Hiding+Place+%2A2011%2A+%5BDVDRip.XviD-miguel%5D+%5BENG%5D","amp;tr":["udp%3A%2F%2Ftracker.openbittorrent.com%3A80","udp%3A%2F%2Fopen.demonii.com%3A1337","udp%3A%2F%2Ftracker.coppersurfer.tk%3A6969","udp%3A%2F%2Fexodus.desync.com%3A6969"],"infoHash":"c5ac616d30325922079108d72feed76b445f7c3a","infoHashBuffer":{"type":"Buffer","data":[197,172,97,109,48,50,89,34,7,145,8,215,47,238,215,107,68,95,124,58]},"announce":[],"urlList":[]}}